# xmcd
#
# Track frame offsets:
# 150
# 16926
# 33706
# 54355
# 63963
# 80450
# 104454
# 114751
# 131081
# 141538
# 155787
# 168384
# 183484
# 198669
# 219794
# 230064
# 244882
#
# Disc length: 3443 seconds
#
#
# Revision: 0
# Processed by: cddbd v1.5.1PL2 Copyright (c) Steve Scherf et al.
# Submitted via: FreeRIP 2.941 
#
DISCID=f40d7111
DTITLE=Someday Baby - Bonus Tracks
DYEAR=2005
DGENRE=Blues
TTITLE0=She caught The Katy And Left Me A Mule To Ride
TTITLE1=Make Me A Pallet On Your Floor
TTITLE2=Give Me One Reason
TTITLE3=Fishing Blues
TTITLE4=The Duck Yas Yas
TTITLE5=Long Haired Doney
TTITLE6=Runnin' To The Judgment
TTITLE7=Skinny Woman
TTITLE8=Please Baby
TTITLE9=Louisiana Blues
TTITLE10=Keep It Clean
TTITLE11=Shake 'Em On Down
TTITLE12=Dry Spell Blues
TTITLE13=Casey Jones
TTITLE14=Don't Let The Devil Ride
TTITLE15=Charmin' Betsy
TTITLE16=She Caught The Katy (Pilu Classic Mix)
EXTD=
EXTT0=
EXTT1=
EXTT2=
EXTT3=
EXTT4=
EXTT5=
EXTT6=
EXTT7=
EXTT8=
EXTT9=
EXTT10=
EXTT11=
EXTT12=
EXTT13=
EXTT14=
EXTT15=
EXTT16=
PLAYORDER=
